HIERARCHY
ROOT hip
{
  OFFSET 0 0 0
  CHANNELS 6 Xposition Yposition Zposition Zrotation Yrotation Xrotation
  JOINT abdomen
  {
    OFFSET 0 20.6881 -0.73152
    CHANNELS 3 Zrotation Xrotation Yrotation
    JOINT chest
    {
      OFFSET 0 11.7043 -0.48768
      CHANNELS 3 Zrotation Xrotation Yrotation
      JOINT neck
      {
        OFFSET 0 22.1894 -2.19456
        CHANNELS 3 Zrotation Xrotation Yrotation
        JOINT head
        {
          OFFSET -0.24384 7.07133 1.2192
          CHANNELS 3 Zrotation Xrotation Yrotation
          JOINT leftEye
          {
            OFFSET 4.14528 8.04674 8.04672
            CHANNELS 3 Zrotation Xrotation Yrotation
            End Site
            {
              OFFSET 1 0 0
            }
          }
          JOINT rightEye
          {
            OFFSET -3.6576 8.04674 8.04672
            CHANNELS 3 Zrotation Xrotation Yrotation
            End Site
            {
              OFFSET 1 0 0
            }
          }
        }
      }
      JOINT rCollar
      {
        OFFSET -2.68224 19.2634 -4.8768
        CHANNELS 3 Zrotation Xrotation Yrotation
        JOINT rShldr
        {
          OFFSET -8.77824 -1.95073 1.46304
          CHANNELS 3 Zrotation Xrotation Yrotation
          JOINT rForeArm
          {
            OFFSET -28.1742 -1.7115 0.48768
            CHANNELS 3 Zrotation Xrotation Yrotation
            JOINT rHand
            {
              OFFSET -22.5879 0.773209 7.07136
              CHANNELS 3 Zrotation Xrotation Yrotation
              JOINT rThumb1
              {
                OFFSET -1.2192 -0.487915 3.41376
                CHANNELS 3 Zrotation Xrotation Yrotation
                JOINT rThumb2
                {
                  OFFSET -3.37035 -0.52449 3.41376
                  CHANNELS 3 Zrotation Xrotation Yrotation
                  End Site
                  {
                    OFFSET -1.78271 -1.18214 1.43049
                  }
                }
              }
              JOINT rIndex1
              {
                OFFSET -7.75947 0.938293 5.60832
                CHANNELS 3 Zrotation Xrotation Yrotation
                JOINT rIndex2
                {
                  OFFSET -2.54057 -0.884171 1.56538
                  CHANNELS 3 Zrotation Xrotation Yrotation
                  End Site
                  {
                    OFFSET -1.62519 -0.234802 1.16502
                  }
                }
              }
              JOINT rMid1
              {
                OFFSET -8.24714 1.18213 3.41376
                CHANNELS 3 Zrotation Xrotation Yrotation
                JOINT rMid2
                {
                  OFFSET -3.10165 -0.590103 1.0647
                  CHANNELS 3 Zrotation Xrotation Yrotation
                  End Site
                  {
                    OFFSET -2.48547 -0.328903 0.83742
                  }
                }
              }
              JOINT rRing1
              {
                OFFSET -8.82822 0.546677 1.51678
                CHANNELS 3 Zrotation Xrotation Yrotation
                JOINT rRing2
                {
                  OFFSET -2.60934 -0.819778 -0.0198488
                  CHANNELS 3 Zrotation Xrotation Yrotation
                  End Site
                  {
                    OFFSET -2.33842 -0.294052 0.168128
                  }
                }
              }
              JOINT rPinky1
              {
                OFFSET -8.27202 -0.0477905 -0.4584
                CHANNELS 3 Zrotation Xrotation Yrotation
                JOINT rPinky2
                {
                  OFFSET -1.82734 -0.647385 -0.700984
                  CHANNELS 3 Zrotation Xrotation Yrotation
                  End Site
                  {
                    OFFSET -1.69225 -0.51767 -0.607171
                  }
                }
              }
            }
          }
        }
      }
      JOINT lCollar
      {
        OFFSET 2.68224 19.2634 -4.8768
        CHANNELS 3 Zrotation Xrotation Yrotation
        JOINT lShldr
        {
          OFFSET 8.77824 -1.95073 1.46304
          CHANNELS 3 Zrotation Xrotation Yrotation
          JOINT lForeArm
          {
            OFFSET 28.1742 -1.7115 0.48768
            CHANNELS 3 Zrotation Xrotation Yrotation
            JOINT lHand
            {
              OFFSET 22.5879 0.773209 7.07136
              CHANNELS 3 Zrotation Xrotation Yrotation
              JOINT lThumb1
              {
                OFFSET 1.2192 -0.487915 3.41376
                CHANNELS 3 Zrotation Xrotation Yrotation
                JOINT lThumb2
                {
                  OFFSET 3.37035 -0.52449 3.41376
                  CHANNELS 3 Zrotation Xrotation Yrotation
                  End Site
                  {
                    OFFSET 1.78271 -1.18214 1.43049
                  }
                }
              }
              JOINT lIndex1
              {
                OFFSET 7.75947 0.938293 5.60832
                CHANNELS 3 Zrotation Xrotation Yrotation
                JOINT lIndex2
                {
                  OFFSET 2.54057 -0.884171 1.56538
                  CHANNELS 3 Zrotation Xrotation Yrotation
                  End Site
                  {
                    OFFSET 1.62519 -0.234802 1.16502
                  }
                }
              }
              JOINT lMid1
              {
                OFFSET 8.24714 1.18213 3.41376
                CHANNELS 3 Zrotation Xrotation Yrotation
                JOINT lMid2
                {
                  OFFSET 3.10165 -0.590103 1.0647
                  CHANNELS 3 Zrotation Xrotation Yrotation
                  End Site
                  {
                    OFFSET 2.48547 -0.328903 0.83742
                  }
                }
              }
              JOINT lRing1
              {
                OFFSET 8.82822 0.546677 1.51678
                CHANNELS 3 Zrotation Xrotation Yrotation
                JOINT lRing2
                {
                  OFFSET 2.60934 -0.819778 -0.0198488
                  CHANNELS 3 Zrotation Xrotation Yrotation
                  End Site
                  {
                    OFFSET 2.33842 -0.294052 0.168128
                  }
                }
              }
              JOINT lPinky1
              {
                OFFSET 8.27202 -0.0477905 -0.4584
                CHANNELS 3 Zrotation Xrotation Yrotation
                JOINT lPinky2
                {
                  OFFSET 1.82734 -0.647385 -0.700984
                  CHANNELS 3 Zrotation Xrotation Yrotation
                  End Site
                  {
                    OFFSET 1.69225 -0.51767 -0.607171
                  }
                }
              }
            }
          }
        }
      }
    }
  }
  JOINT rButtock
  {
    OFFSET -8.77824 4.35084 1.2192
    CHANNELS 3 Zrotation Xrotation Yrotation
    JOINT rThigh
    {
      OFFSET 0 -1.70687 -2.19456
      CHANNELS 3 Zrotation Xrotation Yrotation
      JOINT rShin
      {
        OFFSET 0 -36.8199 0.73152
        CHANNELS 3 Zrotation Xrotation Yrotation
        JOINT rFoot
        {
          OFFSET 0.73152 -45.1104 -5.12064
          CHANNELS 3 Zrotation Xrotation Yrotation
          End Site
          {
            OFFSET -1.1221 -3.69964 12.103
          }
        }
      }
    }
  }
  JOINT lButtock
  {
    OFFSET 8.77824 4.35084 1.2192
    CHANNELS 3 Zrotation Xrotation Yrotation
    JOINT lThigh
    {
      OFFSET 0 -1.70687 -2.19456
      CHANNELS 3 Zrotation Xrotation Yrotation
      JOINT lShin
      {
        OFFSET 0 -36.8199 0.73152
        CHANNELS 3 Zrotation Xrotation Yrotation
        JOINT lFoot
        {
          OFFSET -0.73152 -45.1104 -5.12064
          CHANNELS 3 Zrotation Xrotation Yrotation
          End Site
          {
            OFFSET 1.1221 -3.69964 12.103
          }
        }
      }
    }
  }
}
MOTION
Frames:	4
Frame Time:	0.00833333
-181.984 75.6904 11.7308 0.0 0.0 0.0 1.92988 -0.00172179 0.0523826 0.532081 0.00507112 0.0921225 6.1948e-14 -7.95139e-16 -7.7029e-16 1.85587e-13 -6.36111e-15 -2.43511e-15 -0.0 0.0 0.0 -0.0 0.0 0.0 3.10594e-14 -7.02735e-17 -2.48481e-16 6.56176e-13 -1.16786e-15 -5.56597e-15 1.1255e-11 -3.39822e-12 -2.44903e-13 1.28626e-10 3.11356e-12 -1.45987e-12 3.03435e-10 -6.22789e-13 -3.71807e-12 5.24003e-10 -1.07821e-12 -6.43108e-12 3.03441e-10 -6.22991e-13 -3.72443e-12 7.73091 5.47488 0.417314 3.03435e-10 -6.23289e-13 -3.71489e-12 2.90554 0.965183 0.102902 3.03439e-10 -6.22594e-13 -3.71966e-12 10.2786 0.731801 0.0259123 3.03435e-10 -6.22196e-13 -3.71489e-12 2.22167 -0.733487 -0.20892 3.10628e-14 -6.87205e-17 -5.46658e-16 6.50223e-13 -1.46604e-15 -7.55382e-15 1.12249e-11 3.31533e-12 -2.73528e-13 1.28606e-10 -3.61415e-12 -1.42171e-12 3.03339e-10 -6.47379e-13 -3.72761e-12 5.23862e-10 -1.11637e-12 -6.45971e-12 3.03334e-10 -6.44857e-13 -3.71807e-12 -7.73091 5.47488 -0.417314 3.0334e-10 -6.47541e-13 -3.73397e-12 -2.90554 0.965183 -0.102902 3.03333e-10 -6.46845e-13 -3.73238e-12 -10.2786 0.731801 -0.0259123 3.03345e-10 -6.46448e-13 -3.74669e-12 -2.22167 -0.733487 0.20892 -2.03217e-16 0.0 -3.88251e-19 1.95938 -7.26117 -0.192011 0.00412133 7.5853 0.107069 -0.521185 -0.330675 0.0523166 2.03217e-16 0.0 3.88251e-19 0.976585 -1.92613 0.000871402 0.00898784 -2.0786 0.0740689 0.487973 3.99809 -0.136752
-177.484 73.0118 -0.559714 124.163 74.4759 130.644 -5.19571 6.04858 -2.34368 2.15683 -1.47916 -0.781991 -0.41301 -3.90923 0.488716 1.57275 0.0865266 1.17684 -0.0 0.0 0.0 -0.0 0.0 0.0 5.67469e-14 -2.16789e-13 3.58142e-14 18.0099 15.6258 -11.5236 -12.3916 -9.36377 13.617 0.0338188 -4.0946 -0.570228 6.72811e-11 -6.10632e-11 7.48163e-12 1.1548e-10 -1.04819e-10 1.16255e-11 6.72862e-11 -6.10602e-11 7.47237e-12 7.73091 5.47488 0.417314 6.72801e-11 -6.10624e-11 7.48474e-12 2.90554 0.965183 0.102902 6.72832e-11 -6.10623e-11 7.4805e-12 10.2786 0.731801 0.0259123 6.72799e-11 -6.10619e-11 7.48663e-12 2.22167 -0.733487 -0.20892 5.68336e-14 -2.16794e-13 3.55297e-14 -18.8012 13.3595 -7.29459 15.9653 -13.3038 -14.7859 0.000594549 -0.0486692 0.00686056 -3.01477e-11 -2.9772e-10 2.40476e-10 -5.27857e-11 -5.1422e-10 4.15206e-10 -3.01516e-11 -2.97716e-10 2.40485e-10 -7.73091 5.47488 -0.417314 -3.01465e-11 -2.97717e-10 2.40472e-10 -2.90554 0.965183 -0.102902 -3.01529e-11 -2.97716e-10 2.40474e-10 -10.2786 0.731801 -0.0259123 -3.01431e-11 -2.97716e-10 2.40462e-10 -2.22167 -0.733487 0.20892 -2.03217e-16 0.0 -3.88251e-19 -4.26376 -19.8121 -3.3142 -0.316381 24.9901 0.283164 -2.41058 51.6036 3.40682 2.03217e-16 0.0 3.88251e-19 -3.87787 -0.569125 -0.0595078 -0.12954 7.90826 -0.234455 0.567665 -4.10316 0.520267
-173.495 73.3819 -0.742336 120.551 74.3024 126.775 -12.1614 12.4414 -4.91632 3.78397 -3.07696 -1.69433 -0.821947 -8.03395 0.975267 3.31441 0.129339 2.36973 -0.0 0.0 0.0 -0.0 0.0 0.0 8.69345e-14 -4.71386e-13 7.39945e-14 44.6764 29.8489 -26.4625 -20.6205 -17.4295 29.0678 -0.0198997 -8.38324 -1.17744 -1.99485e-10 -1.24265e-10 1.72205e-11 -3.45907e-10 -2.13092e-10 2.68572e-11 -1.99481e-10 -1.24259e-10 1.7208e-11 7.73091 5.47488 0.417314 -1.99487e-10 -1.24263e-10 1.72235e-11 2.90554 0.965183 0.102902 -1.99485e-10 -1.24264e-10 1.72199e-11 10.2786 0.731801 0.0259123 -1.99488e-10 -1.24264e-10 1.72275e-11 2.22167 -0.733487 -0.20892 8.71135e-14 -4.71399e-13 7.37243e-14 -34.7091 26.724 -16.3406 25.0449 -24.1996 -32.7611 0.00163609 -0.0374915 0.00532409 -4.03979e-10 -6.39136e-10 5.17895e-10 -6.99208e-10 -1.10386e-09 8.94165e-10 -4.03982e-10 -6.39131e-10 5.17902e-10 -7.73091 5.47488 -0.417314 -4.03977e-10 -6.39131e-10 5.17894e-10 -2.90554 0.965183 -0.102902 -4.03984e-10 -6.3913e-10 5.17896e-10 -10.2786 0.731801 -0.0259123 -4.03976e-10 -6.39129e-10 5.17885e-10 -2.22167 -0.733487 0.20892 -2.03217e-16 0.0 -3.88251e-19 -12.6166 -32.7987 -7.45023 -0.825702 43.194 0.563745 -167.798 70.5991 168.195 2.03217e-16 0.0 3.88251e-19 -9.05739 0.672573 -0.11856 -0.154982 18.5907 -0.589767 0.875527 -12.9567 1.28371
-169.597 73.705 -0.853263 117.45 73.8791 123.872 -17.867 18.0203 -7.46475 5.27017 -4.44369 -2.53707 -1.03536 -11.7242 1.49391 4.70759 0.259142 3.53055 -0.0 0.0 0.0 -0.0 0.0 0.0 1.08122e-13 -6.50227e-13 1.0794e-13 75.7724 38.263 -44.3306 -24.3067 -21.6214 44.0824 -0.147882 -12.2789 -1.74628 -4.05027e-10 -1.81944e-10 2.9881e-11 -7.01565e-10 -3.12299e-10 4.77387e-11 -4.05024e-10 -1.81935e-10 2.9866e-11 7.73091 5.47488 0.417314 -4.05029e-10 -1.81941e-10 2.9884e-11 2.90554 0.965183 0.102902 -4.05028e-10 -1.81942e-10 2.98808e-11 10.2786 0.731801 0.0259123 -4.05031e-10 -1.81941e-10 2.98897e-11 2.22167 -0.733487 -0.20892 1.08375e-13 -6.50246e-13 1.07682e-13 -44.3192 37.1436 -27.095 27.3935 -28.7434 -51.251 0.00181861 -0.146008 0.0205817 -6.97122e-10 -8.91865e-10 7.28884e-10 -1.20608e-09 -1.54043e-09 1.25854e-09 -6.97123e-10 -8.91859e-10 7.2889e-10 -7.73091 5.47488 -0.417314 -6.97119e-10 -8.91857e-10 7.28885e-10 -2.90554 0.965183 -0.102902 -6.97126e-10 -8.91856e-10 7.28888e-10 -10.2786 0.731801 -0.0259123 -6.97119e-10 -8.91855e-10 7.28878e-10 -2.22167 -0.733487 0.20892 -2.03217e-16 0.0 -3.88251e-19 -22.2516 -44.3086 -12.5885 -1.58491 59.7959 1.10862 -175.354 24.2262 173.154 2.03217e-16 0.0 3.88251e-19 -13.5782 2.14487 -0.180383 -0.0511038 27.8789 -0.955639 1.31132 -20.2954 1.95079
